<svg width="25" height="25" viewBox="0 0 25 25" fill="none" xmlns="http://www.w3.org/2000/svg">
<g id="Iconly/Bold/Edit-Square">
<g id="Edit-Square">
<path id="Vector" d="M17.9256 0.319246C19.6801 0.209591 21.4102 0.818786 22.7139 2.01281C23.9079 3.31648 24.5171 5.0466 24.4197 6.81326V18.193C24.5293 19.9597 23.9079 21.6898 22.7261 22.9935C21.4224 24.1875 19.6801 24.7967 17.9256 24.687H6.54574C4.77906 24.7967 3.04893 24.1875 1.74524 22.9935C0.551212 21.6898 -0.0579879 19.9597 0.051668 18.193V6.81326C-0.0579879 5.0466 0.551212 3.31648 1.74524 2.01281C3.04893 0.818786 4.77906 0.209591 6.54574 0.319246H17.9256ZM17.6088 5.88729C16.8534 5.13188 15.635 5.13188 14.8796 5.88729L14.0633 6.71579C13.9414 6.83763 13.9414 7.04476 14.0633 7.1666C14.0633 7.1666 14.0872 7.19036 14.1297 7.23268L14.4294 7.53073C14.6028 7.70321 14.8192 7.91861 15.0365 8.13521L15.7732 8.87164C15.927 9.02607 16.0289 9.12956 16.0371 9.14039C16.1711 9.28659 16.2564 9.48154 16.2564 9.70085C16.2564 10.1395 15.903 10.505 15.4522 10.505C15.2451 10.505 15.0502 10.4197 14.9161 10.2857L12.8814 8.26315C12.7839 8.16567 12.6134 8.16567 12.5159 8.26315L6.70413 14.0749C6.30206 14.4769 6.07056 15.013 6.05838 15.5857L5.98527 18.4732C5.98527 18.6316 6.03401 18.7778 6.14366 18.8875C6.25332 18.9972 6.39953 19.0581 6.55792 19.0581H9.42116C10.006 19.0581 10.5665 18.8266 10.9929 18.4123L19.1927 10.1882C19.9359 9.4328 19.9359 8.21441 19.1927 7.47119L17.6088 5.88729Z" fill="#0C7FDA"/>
</g>
</g>
</svg>
