<svg width="30" height="30" viewBox="0 0 30 30" fill="none" xmlns="http://www.w3.org/2000/svg">
<g id="3 User">
<path id="icon" d="M9.00781 5.37305C8.45553 5.37305 8.00781 5.82076 8.00781 6.37305V24.373C8.00781 24.9253 8.45553 25.373 9.00781 25.373H21.0078C21.5601 25.373 22.0078 24.9253 22.0078 24.373V11.873H16.5078C15.9555 11.873 15.5078 11.4253 15.5078 10.873V5.37305H9.00781ZM17.5078 6.78726V9.87305H20.5936L17.5078 6.78726ZM6.00781 6.37305C6.00781 4.71619 7.35096 3.37305 9.00781 3.37305H16.5078C16.773 3.37305 17.0274 3.4784 17.2149 3.66594L23.7149 10.1659C23.9025 10.3535 24.0078 10.6078 24.0078 10.873V24.373C24.0078 26.0299 22.6647 27.373 21.0078 27.373H9.00781C7.35096 27.373 6.00781 26.0299 6.00781 24.373V6.37305Z" fill="#5D7285"/>
</g>
</svg>
