<svg width="30" height="30" viewBox="0 0 30 30" fill="none" xmlns="http://www.w3.org/2000/svg">
<g id="Filter">
<path id="Path" fill-rule="evenodd" clip-rule="evenodd" d="M5.5202 13.4728C11.4258 10.3681 15.3637 8.32129 17.3341 7.33237C22.9599 4.50881 24.1289 4.01832 24.8909 4.00213C25.0584 3.99856 25.4331 4.04868 25.6758 4.28633C25.8808 4.48699 25.9372 4.75806 25.9642 4.94831C25.9911 5.13856 26.0247 5.57196 25.998 5.91061C25.6932 9.77585 24.374 19.1558 23.7029 23.4849C23.4189 25.3167 22.8598 25.9309 22.3185 25.9911C21.1421 26.1217 20.2488 25.0529 19.1094 24.1517C17.3264 22.7414 16.3191 21.8635 14.5885 20.4873C12.5884 18.8969 13.885 18.0228 15.0248 16.5942C15.3231 16.2203 20.5064 10.5314 20.6067 10.0153C20.6193 9.95076 20.6309 9.71017 20.5125 9.58313C20.394 9.45609 20.2192 9.49953 20.093 9.53408C19.9142 9.58306 17.0659 11.8547 11.5482 16.3491C10.7397 17.019 10.0074 17.3454 9.35128 17.3283C8.62797 17.3095 7.23662 16.8348 6.20229 16.4291C4.93364 15.9315 3.92534 15.6684 4.01314 14.8233C4.05887 14.3831 4.56123 13.933 5.5202 13.4728Z" fill="#5D7285"/>
</g>
</svg>
