<svg width="30" height="30" viewBox="0 0 30 30" fill="none" xmlns="http://www.w3.org/2000/svg">
<path d="M14.6169 2.57812C17.6447 2.57812 20.1142 5.00523 20.1142 7.99337V13.8355H12.6686C12.135 13.8355 11.7131 14.2502 11.7131 14.7746C11.7131 15.2869 12.135 15.7138 12.6686 15.7138H20.1142V21.5437C20.1142 24.5318 17.6447 26.9711 14.5921 26.9711H8.54876C5.5085 26.9711 3.03906 24.544 3.03906 21.5559V8.00557C3.03906 5.00523 5.52091 2.57812 8.56117 2.57812H14.6169ZM23.2123 10.5671C23.5782 10.189 24.1758 10.189 24.5417 10.5549L28.1031 14.1041C28.2861 14.287 28.3836 14.5187 28.3836 14.7749C28.3836 15.0188 28.2861 15.2627 28.1031 15.4335L24.5417 18.9827C24.3588 19.1656 24.1149 19.2632 23.8831 19.2632C23.6392 19.2632 23.3953 19.1656 23.2123 18.9827C22.8464 18.6168 22.8464 18.0191 23.2123 17.6532L25.1638 15.714H20.1144V13.8357H25.1638L23.2123 11.8965C22.8464 11.5306 22.8464 10.933 23.2123 10.5671Z" fill="white"/>
</svg>
