<svg width="30" height="30" viewBox="0 0 30 30" fill="none" xmlns="http://www.w3.org/2000/svg">
<path d="M14.3618 17.8566C18.5466 17.8566 22.1199 18.52 22.1199 21.1749C22.1199 23.8287 18.5696 24.5164 14.3618 24.5164C10.177 24.5164 6.60367 23.8529 6.60367 21.1991C6.60367 18.5442 10.154 17.8566 14.3618 17.8566ZM21.0528 16.258C22.6527 16.2283 24.3728 16.448 25.0084 16.604C26.3549 16.8687 27.2406 17.4091 27.6075 18.1945C27.9176 18.8393 27.9176 19.5873 27.6075 20.231C27.0462 21.4491 25.2366 21.8401 24.5333 21.9412C24.3881 21.9632 24.2712 21.8369 24.2865 21.6908C24.6458 18.3153 21.7878 16.7149 21.0485 16.3469C21.0168 16.3304 21.0103 16.3052 21.0135 16.2898C21.0157 16.2788 21.0288 16.2612 21.0528 16.258ZM7.49462 16.2557L7.7959 16.2584C7.81992 16.2617 7.83193 16.2793 7.83412 16.2891C7.83739 16.3056 7.83084 16.3298 7.80026 16.3474C7.05983 16.7153 4.20187 18.3157 4.56116 21.6901C4.57645 21.8373 4.46069 21.9625 4.31544 21.9416C3.61215 21.8406 1.80257 21.4495 1.24124 20.2314C0.930002 19.5866 0.930002 18.8397 1.24124 18.1949C1.60818 17.4095 2.49277 16.8691 3.8393 16.6033C4.47598 16.4484 6.19491 16.2287 7.7959 16.2584L7.49462 16.2557ZM14.3618 5.00195C17.211 5.00195 19.4957 7.29766 19.4957 10.1646C19.4957 13.0303 17.211 15.3282 14.3618 15.3282C11.5126 15.3282 9.22794 13.0303 9.22794 10.1646C9.22794 7.29766 11.5126 5.00195 14.3618 5.00195ZM21.3313 5.8629C24.0834 5.8629 26.2446 8.46726 25.5085 11.3682C25.0116 13.3212 23.213 14.6184 21.209 14.5657C21.0081 14.5602 20.8104 14.5416 20.6193 14.5086C20.4806 14.4844 20.4107 14.3274 20.4893 14.2109C21.2538 13.0796 21.6895 11.7186 21.6895 10.2577C21.6895 8.73308 21.2134 7.31172 20.3867 6.14629C20.3605 6.11004 20.3408 6.05402 20.367 6.01228C20.3889 5.97823 20.4293 5.96066 20.4675 5.95187C20.746 5.89475 21.0321 5.8629 21.3313 5.8629ZM7.51578 5.86279C7.81501 5.86279 8.10113 5.89464 8.3807 5.95176C8.41783 5.96055 8.45933 5.97922 8.48117 6.01217C8.50629 6.05391 8.48773 6.10993 8.46152 6.14618C7.63481 7.31161 7.15867 8.73297 7.15867 10.2576C7.15867 11.7185 7.59441 13.0794 8.35886 14.2108C8.43749 14.3273 8.3676 14.4843 8.2289 14.5085C8.0367 14.5425 7.84012 14.5601 7.63918 14.5656C5.63522 14.6183 3.83657 13.3211 3.33967 11.3681C2.60252 8.46715 4.76374 5.86279 7.51578 5.86279Z" fill="#5D7285"/>
</svg>
